[img]http://img88.imageshack.us/img88/9595/123dt.png[/img]


[code]iMDB................................: http://www.imdb.com/title/tt1152398/ 


Plot :
A modern-day take on the "Beauty and the Beast" tale where a New York teen is transformed into a hideous monster in order to find true love. 


Format                           : MPEG-4
Format profile                   : Base Media
File size                        : 1.46 GiB
Duration                         : 1h 26mn
Overall bit rate                 : 2 419 Kbps
Encoded date                     : UTC 2011-06-16 11:07:39

Video
Format                           : AVC
Format/Info                      : Advanced Video Codec
Format profile                   : High@L4.1
Format settings, CABAC           : Yes
Format settings, ReFrames        : 4 frames
Codec ID/Info                    : Advanced Video Coding
Duration                         : 1h 26mn
Bit rate mode                    : Variable
Bit rate                         : 2 163 Kbps
Maximum bit rate                 : 11.8 Mbps
Width                            : 1 280 pixels
Height                           : 544 pixels
Display aspect ratio             : 2.35:1
Frame rate mode                  : Constant
Frame rate                       : 23.976 fps
Bits/(Pixel*Frame)               : 0.130
Stream size                      : 1.30 GiB (89%)
Writing library                  : x264 core 115 r1995 c1e60b9


Audio
Format                           : AAC
Format/Info                      : Advanced Audio Codec
Format profile                   : LC
Codec ID                         : 40
Duration                         : 1h 26mn
Bit rate mode                    : Variable
Bit rate                         : 254 Kbps
Maximum bit rate                 : 400 Kbps
Channel(s)                       : 6 channels
Channel positions                : Front: L C R, Side: L R, LFE
Sampling rate                    : 48.0 KHz
Stream size                      : 156 MiB (10%)
Language                         : English


[/code]


[img]http://img193.imageshack.us/img193/541/beastly2011bluray720pdt.png[/img]
[img]http://img860.imageshack.us/img860/541/beastly2011bluray720pdt.png[/img]
[img]http://img221.imageshack.us/img221/4368/023xhqv.png[/img]
[img][/img]
[img][/img]


[code]Trackers : 
http://nemesis.1337x.org/announce 
http://genesis.1337x.org:1337/announce
[/code]


[code]
Feel free to visit and select your range and suite of seedboxes and hosting plans.
Recomended by MXMG as these servers seed for your Dowloading @ 25MB/s 
http://www.chociz.com/

^COMPATiBLE MODES.......: XBOX-360/PSP/PS3/WDTV

FiND THE GENUiNE MXMG RELEASES @ TORRENTSTATE
HiGHEST QUALiTY iN COMFORTABLE SiZE ...
[/code]